<mxfile host="app.diagrams.net" modified="2023-09-25T12:59:39.287Z" agent="Mozilla/5.0 (Windows NT 10.0; Win64; x64) AppleWebKit/537.36 (KHTML, like Gecko) Chrome/116.0.0.0 Safari/537.36" version="21.6.8" etag="paOiBt0_9njwwYfCsekZ" type="github">
  <diagram name="第 1 页" id="f3psmFliSFJy_ff_Lpko">
    <mxGraphModel>
      <root>
        <mxCell id="0" />
        <mxCell id="1" parent="0" />
      </root>
    </mxGraphModel>
  </diagram>
</mxfile>
